<svg version="1.2" xmlns="http://www.w3.org/2000/svg" viewBox="0 0 1249 1249" width="1249" height="1249">
	<title>fastqa-removebg</title>
	<style>
		.s0 { opacity: 1;fill: #1c3a4d } 
		.s1 { fill: #5e7f94 } 
		.s2 { opacity: .2;fill: #cbb8b3 } 
		.s3 { opacity: .3;fill: #96b4bc } 
		.s4 { opacity: .8;fill: #545e65 } 
		.s5 { opacity: .5;fill: #739597 } 
		.s6 { opacity: .6;fill: #766197 } 
		.s7 { opacity: 1;fill: #d35b49 } 
		.s8 { opacity: .6;fill: #c58c84 } 
		.s9 { opacity: .9;fill: #4c876c } 
	</style>
	<g id="Background">
		<path id="Path 0" fill-rule="evenodd" class="s0" d="m633.5 187.6c12.1 0.3 25.4 0.9 29.5 1.5 4.1 0.6 13.8 2.2 21.5 3.6 7.7 1.4 19.9 4 27 5.9 7.1 1.8 18 4.9 24 6.9 6 1.9 11.9 3.9 13 4.4 1.1 0.5 6.7 2.8 12.5 5.1 5.8 2.3 16.6 7.3 24 11 7.4 3.7 15.1 7.7 17 8.7 1.9 1.1 5.3 3.1 7.5 4.4 2.2 1.3 10 6.3 17.3 11.1 7.2 4.9 13.4 9.2 13.7 9.8 0.3 0.6-0.2 2.6-1 4.5-0.9 2-2.6 4-4.3 4.6-1.5 0.7-4.5 1.5-6.7 2-2.2 0.4-5.8 1.2-8 1.7-2.2 0.5-7.5 1.9-11.8 3.1-4.2 1.1-9.3 2.1-11.2 2.1-1.9 0-3.5-0.3-3.5-0.7 0-0.5-1.9-2-4.3-3.4-2.3-1.5-7.3-4.2-11.2-6.1-3.9-1.9-9-4.5-11.5-5.6-2.5-1.2-9.2-4.1-15-6.5-5.8-2.4-15.5-6.1-21.5-8.2-6-2.1-14.4-4.7-18.5-5.7-4.1-1.1-10.6-2.6-14.5-3.5-3.9-0.8-9-1.9-11.5-2.4-2.5-0.6-8.1-1.6-12.5-2.4-4.4-0.7-13.2-1.8-19.5-2.4-6.3-0.6-12.9-1-14.7-0.8-2.1 0.1-3.9-0.5-5.5-1.9-1.3-1.2-3.3-2.7-4.6-3.3-1.2-0.6-4.6-1.1-7.5-1.1-4 0-6.1 0.6-9.2 2.7-3.4 2.3-5.8 2.9-16.5 4-6.9 0.7-15.4 1.7-19 2.3-3.6 0.6-9 1.5-12 2.1-3 0.6-12 2.7-20 4.6-8 2-19.7 5.3-26 7.3-6.3 2.1-16.3 5.9-22.3 8.4-5.9 2.5-14 6.1-18 8-3.9 1.8-13.5 7-21.2 11.6-7.7 4.6-18.9 12.1-25 16.6-6.1 4.6-13.5 10.4-16.5 13-3 2.5-8.2 7.2-11.5 10.4-3.3 3.1-8.9 8.8-12.4 12.6-3.6 3.8-10.8 12.3-16 18.9-5.3 6.6-12.6 16.6-16.4 22.3-3.7 5.6-6.7 10.5-6.7 11 0 0.4-0.7 1.4-1.5 2.2-0.8 0.8-5.1 8.9-9.7 18-4.6 9.1-9.1 18.3-10 20.5-0.9 2.2-2.7 7.1-4.2 11-1.4 3.9-2.6 7.7-2.6 8.5 0 0.8-0.3 1.9-0.7 2.3-0.4 0.5-1.4 3-2.1 5.5-0.7 2.6-2.2 8.3-3.3 12.7-1.1 4.4-2.6 11.1-3.4 15-0.8 3.9-2.1 11.9-3 18-0.8 6.1-1.5 12.6-1.5 14.5-0.1 1.9 0.8 4.6 1.8 6 1 1.4 3.4 3.1 5.3 3.9 3 1.2 3.8 1.2 7.3-0.5 2.1-1.1 4.5-2.8 5.2-3.9 0.8-1.1 1.4-3.9 1.4-6.2 0-2.4 0.7-9.4 1.6-15.5 0.8-6.2 1.9-12.9 2.4-14.8 0.5-1.9 1.6-6.4 2.5-10 0.8-3.6 2.6-9.9 3.9-14 1.4-4.1 3.6-10.6 4.9-14.5 1.4-3.9 3.5-9.5 4.7-12.5 1.2-3 4.3-9.8 6.9-15 2.6-5.2 6.7-12.9 9.1-17 2.5-4.1 6.9-11.1 9.9-15.5 3-4.4 7.3-10.5 9.5-13.5 2.2-3 6.6-8.4 9.6-12 3.1-3.6 9.7-10.7 14.6-15.9 4.9-5.1 13.8-13.5 19.9-18.6 6.1-5 14.8-11.9 19.5-15.2 4.7-3.3 13.4-8.8 19.5-12.3 6.1-3.5 15.3-8.3 20.5-10.8 5.2-2.4 10.4-4.7 11.5-5.2 1.1-0.4 4.5-1.8 7.5-3 3-1.3 8.9-3.4 13-4.7 4.1-1.4 8.9-2.8 10.5-3.3 1.6-0.5 6.3-1.8 10.2-2.9 4-1.2 11.5-3 16.5-4.1 5.1-1.1 13.1-2.6 17.8-3.4 4.7-0.8 13.1-1.9 29-3.6l3.7 2.9c2.1 1.6 5 3.4 6.5 4 1.6 0.6 4.2 1.1 5.8 1.1 1.6 0 4.5-0.7 6.2-1.6 1.8-0.9 4.6-2.8 6.1-4.3 2.7-2.5 3.1-2.6 10.5-1.9 4.2 0.5 12.4 1.5 18.2 2.3 5.8 0.9 13.9 2.3 18 3.1 4.1 0.9 12.7 2.9 19 4.6 6.3 1.6 12.9 3.3 14.5 3.8 1.6 0.5 6.4 1.9 10.5 3.3 4.1 1.3 10 3.5 13 4.7 3 1.2 7.1 2.9 9 3.7 1.9 0.8 7.2 3.4 11.8 5.7 4.5 2.2 8.2 4.3 8.2 4.6 0 0.3-3.5 1.6-7.7 2.8-4.3 1.3-9.8 3-12.3 3.7-2.5 0.8-6.5 1.9-9 2.5-2.5 0.7-6.5 1.8-9 2.5-2.5 0.8-6.5 1.9-9 2.5-2.5 0.6-6.1 1.5-8 2-1.9 0.5-5.5 1.4-8 2.1-2.5 0.6-5.4 1.3-6.5 1.5-1.1 0.1-3.2-0.4-4.8-1.2-1.5-0.8-2.8-1.2-3-1-0.1 0.3-2 0-4.2-0.5-2.2-0.6-6.3-1.5-9-2-2.8-0.5-7-1.2-9.5-1.5-2.5-0.3-7.9-1.2-12-2-5.5-1-14.8-1.4-34.5-1.4-20.5 0-28.4 0.4-32.8 1.5-3.1 0.8-7.2 1.4-9 1.4-1.7-0.1-4.4 0.3-6 1-1.5 0.6-3.8 1.1-5.2 1.1-1.4 0-9.1 1.8-17.3 4.1-8.1 2.3-21 6.6-28.7 9.6-7.7 3.1-18.7 8-24.5 11.1-5.8 3-13.6 7.5-17.5 10-3.9 2.5-8.8 5.9-11.1 7.6-2.2 1.7-6.7 5.4-9.9 8.1-3.3 2.8-9.9 8.8-14.8 13.5-4.9 4.7-12.4 12.8-16.6 18-4.2 5.2-9.7 12.4-12.1 16.1-2.5 3.6-5 7.4-5.7 8.5-0.7 1-2.7 4.4-4.4 7.4-1.8 3-4.5 8-6 11-1.5 3-4.3 8.9-6.2 13-2 4.1-4.7 11.3-6.2 16-1.4 4.7-3 9.4-3.5 10.5-0.4 1.1-1.6 5.6-2.5 10-0.9 4.4-2 10-2.5 12.5-0.5 2.5-1.4 8.6-1.9 13.5-0.6 4.9-1.1 15.8-1.1 39l-9.7 9.5c-5.4 5.2-16.3 15.6-24.2 23-8 7.4-16.3 15.3-18.6 17.5-2.3 2.2-7.5 7.1-11.6 10.9-4.1 3.8-11.6 10.9-16.7 15.8-7 6.7-9.8 8.8-12 8.8-1.5 0-3.7-0.8-4.9-1.8q-2.1-1.7-4.1-9.7c-1.1-4.4-2.5-10.9-3.1-14.5-0.6-3.6-1.8-11.9-2.7-18.5-1.1-8.7-1.6-20.1-1.6-41.5 0-21.7 0.4-32.7 1.6-41.5 0.9-6.6 2-14.2 2.5-17 0.6-2.7 1.7-8.6 2.7-13 0.9-4.4 2.7-12.3 4-17.5 1.4-5.2 4.7-16.2 7.5-24.5 2.7-8.2 5.6-16.4 6.3-18 0.8-1.6 2.2-4.8 3.1-7 1-2.2 3.3-7.1 5.1-11 1.8-3.9 5.3-10.6 7.7-15 2.4-4.4 5.4-9.8 6.7-12 1.2-2.2 3-5.1 3.8-6.5 0.9-1.4 3.1-5 5.1-8 1.9-3 7.6-10.9 12.5-17.5 5-6.6 12.9-16.5 17.7-22 4.7-5.5 14.9-16 22.5-23.4 7.6-7.3 19.3-17.5 25.9-22.6 6.6-5 17.3-12.6 23.8-16.8 6.4-4.3 11.9-7.7 12.2-7.7 0.3 0 2-1 3.8-2.2 1.7-1.2 9.1-5.2 16.2-8.8 7.1-3.7 16.1-7.9 20-9.4 3.9-1.6 7.9-3.2 9-3.6 1.1-0.5 3.6-1.6 5.5-2.4 1.9-0.8 10.5-3.8 19-6.6 8.5-2.8 19.3-6 24-7.1 4.7-1.1 10.3-2.4 12.5-2.9 2.2-0.6 8.7-1.9 14.5-3 5.8-1.2 13.6-2.6 17.5-3.1 3.9-0.6 12.6-1.4 19.5-1.9 6.9-0.4 22.4-0.6 34.5-0.4zm306 199.8c0.5 0.1 1.9 1.8 2.9 3.7 1 1.9 3.7 7.7 5.8 12.9 2.2 5.2 4.3 10.4 4.8 11.5 0.5 1.1 2 5.4 3.4 9.5 1.3 4.1 3.8 12.2 5.4 18 1.7 5.8 4.1 15.4 5.5 21.5 1.4 6.1 3 13.9 3.6 17.5 0.5 3.6 1.5 9.9 2 14 0.6 4.1 1.8 13.8 2.6 21.5 0.8 7.7 1.5 19.4 1.5 26 0 6.6-0.7 18.5-1.5 26.5-0.8 8-2 17.9-2.6 22-0.6 4.1-3 15.8-5.4 26-2.4 10.2-6.5 24.8-9 32.5-2.5 7.7-5 14.9-5.5 16-0.5 1.1-1.6 3.8-2.6 6-0.9 2.2-4.8 10.3-8.5 18-3.7 7.7-8.3 16.4-10.1 19.4-1.8 2.9-7.1 11.1-11.8 18.1-4.7 7.1-9.5 14-10.7 15.4-1.3 1.4-3.9 4.7-5.9 7.3-2 2.7-6.6 8.2-10.3 12.3-3.6 4.1-9.1 10.1-12.1 13.4-3 3.2-11.6 11.1-19 17.5-7.4 6.4-16 13.5-19 15.7-3 2.3-10.9 7.8-17.5 12.1-6.6 4.4-15.6 10-20 12.5-4.4 2.5-13.6 7.3-20.5 10.6-6.9 3.3-14.3 6.7-16.5 7.7-2.2 0.9-4.6 1.4-5.2 1.1-0.7-0.3-1.1-0.3-0.9 0.1 0.3 0.5-1.2 1.6-3.2 2.5-2 0.9-10.2 3.7-18.2 6.3-8 2.5-15.9 4.9-17.5 5.4-1.6 0.5-6.1 1.6-10 2.6-3.9 0.9-8.6 2.1-10.5 2.5-1.9 0.5-5.1 1.1-7 1.3-1.9 0.2-4 0.6-4.5 0.9-0.5 0.4-3.7 0.9-7 1.4-3.3 0.4-6.9 0.8-8 0.9-1.1 0.1-2.7 0.5-3.5 0.8-0.8 0.2-5.5 1-10.5 1.6-5 0.6-15.5 1.5-23.5 1.9-8 0.4-17.6 0.7-21.5 0.6-3.9-0.1-11.5-0.5-17-0.8-5.5-0.4-11.1-0.8-12.5-1.1-1.4-0.2-6.3-0.9-11-1.5-4.7-0.7-8.7-1.3-9-1.5-0.3-0.2-3.6-0.9-7.5-1.5-3.9-0.6-9-1.5-11.5-2-2.5-0.4-5.9-1.1-7.5-1.5-1.6-0.3-6.1-1.5-10-2.6-3.9-1.2-8.5-2.5-10.2-3-1.8-0.5-4.8-1.3-6.5-1.8-1.8-0.5-6.4-2.1-10.3-3.5-3.9-1.5-9-3.4-11.5-4.3-2.5-0.8-11.7-5-20.5-9.3-8.8-4.3-18.8-9.9-22.2-12.4-4.4-3.2-6.9-5.9-8.2-8.9-1.1-2.3-1.7-5.6-1.5-7.5 0.2-1.7 1-4.4 1.8-6 0.8-1.5 5.2-6.3 9.8-10.7 4.6-4.4 12.6-12 17.9-17 5.2-5 12.8-12.1 16.9-15.9 4.1-3.8 10.6-9.9 14.5-13.5 3.9-3.7 12.4-11.6 19-17.6 6.6-6.1 12.2-11.2 12.5-11.6 0.3-0.3 7.7-7.2 16.5-15.5 8.8-8.2 17.1-16 18.6-17.4 1.4-1.4 4.8-4.5 7.5-7 2.7-2.4 8.5-7.8 12.9-12 4.4-4.1 14.8-13.8 23-21.5 8.2-7.7 15.9-14.9 17.1-16 1.1-1.1 5.2-4.9 9-8.5 3.8-3.6 13.3-12.6 21.2-20 7.9-7.4 15.5-14.1 17-14.9 1.5-0.8 4.3-1.5 6.2-1.7 2.1-0.2 5.2 0.6 8 2 2.5 1.2 5 3.3 5.7 4.7 0.6 1.3 1.7 3.5 2.3 4.9 1.1 2.1 1 3.3-0.5 7.5-1.4 3.9-3.7 6.7-10.4 13-4.7 4.4-13 12.3-18.6 17.5-5.5 5.2-17.2 16.2-26 24.5-8.8 8.2-20 18.8-25 23.5-5 4.7-12.4 11.7-16.5 15.5-4.1 3.8-12.3 11.4-18.1 17-5.8 5.5-13.7 12.9-17.5 16.5-3.8 3.6-10.2 9.4-14.1 13-4 3.6-7.3 7-7.3 7.5 0 0.5 1 1.5 2.2 2.1 1.3 0.7 3.7 1.7 5.3 2.2 1.6 0.6 7 2.1 12 3.3 5 1.2 11.5 2.5 14.5 3 3 0.5 12 1.5 20 2.3 8 0.8 18.3 1.7 23 2.1 4.7 0.3 12.5 0.1 17.5-0.4 5-0.6 12.1-1.3 16-1.6 3.9-0.3 9.3-1 12-1.5 2.8-0.5 8.7-1.6 13.3-2.5 4.5-0.8 12.9-2.9 18.7-4.5 5.8-1.6 11-2.8 11.5-2.5 0.5 0.3 1 0.2 1-0.3 0-0.4 2.8-1.7 6.2-3 3.5-1.3 9-3.5 12.3-4.9 3.3-1.4 10.3-4.6 15.5-7.2 5.2-2.5 9.6-4.9 9.8-5.4 0.1-0.4 0.7-0.7 1.2-0.7 0.5 0 6.1-3.4 12.3-7.5 6.1-4.1 12.1-8.2 13.2-9.2 1.1-1 6.3-5.4 11.5-9.9 5.2-4.5 13.1-12.1 17.6-17 4.4-4.9 11-12.7 14.5-17.4 3.6-4.7 9-12.5 12-17.5 3.1-5 7.4-12.8 9.7-17.5 2.2-4.7 5.7-12.8 7.8-18 2-5.2 4-10.9 4.5-12.5 0.4-1.6 1.4-5.5 2.2-8.5 0.8-3 2.2-9.5 3.1-14.5 0.8-5 2-12.1 2.6-16 0.6-3.9 1.4-14 2.3-38l5.4-11.3c2.9-6.1 5.3-11.4 5.3-11.7 0-0.3 2.7-6.1 6-13 3.3-6.9 6-12.6 6-12.8 0-0.1 2-4.7 4.6-10.2 2.5-5.5 6.2-13.4 8.1-17.5 1.9-4.1 7.6-16.3 12.5-27 4.9-10.7 10.8-23.3 12.9-28 2.2-4.7 5-10.6 6.2-13.2 1.2-2.6 2.7-4.6 3.2-4.4zm-26.9 161.8c-1.4 1.8-2.8 4.7-3.1 6.3-0.4 1.6-0.2 4.8 0.4 7 0.6 2.2 2.4 5.5 3.9 7.3 1.9 2.3 4 3.6 7.2 4.3 2.9 0.6 5.5 0.6 7.5 0 1.6-0.6 4.7-2.8 6.7-5 2.7-2.9 4-5.4 4.4-8.4 0.5-3.1 0.2-5.2-1.2-8.1-1.1-2.2-3.2-4.9-4.7-6-2-1.4-4.7-2.2-8.5-2.3-3.2-0.2-6.7 0.1-7.9 0.6-1.2 0.5-3.4 2.5-4.7 4.3zm-304.1 280.1c0 6.2 0.2 6.8 3.5 10.2 1.9 2 5.2 4 7.3 4.5 2 0.6 5.4 0.7 7.5 0.3 2.5-0.5 4.9-2 7.5-4.7 3.4-3.7 3.8-4.6 3.7-9.4 0-2.8-0.4-6.2-0.9-7.5-0.4-1.2-2.7-3.4-5-5-3.2-2.1-5.3-2.7-9.5-2.7-4.8 0-5.8 0.4-9.7 3.9-4.4 3.8-4.4 3.9-4.4 10.4zm-452-32.9c1.7 0.2 4.8 1.2 6.9 2.2 2.4 1.2 4.8 3.5 6.2 5.9 1.7 2.9 2.4 5.6 2.4 9.7 0 3.2-0.7 7.1-1.5 8.8-0.8 1.6-3 4.1-4.7 5.4-1.8 1.4-5.1 3.1-7.3 3.9-3.2 1.2-5 1.3-9 0.3-3-0.6-6.2-2.3-8.1-4.1-1.9-1.8-3.7-4.8-4.4-7.5-0.6-2.5-0.9-6.2-0.5-8.5 0.4-2.2 1.5-5.4 2.5-7 1-1.7 3.1-3.9 4.6-4.9 1.6-1.1 4.5-2.5 6.4-3.2 1.9-0.8 4.9-1.2 6.5-1z"/>
		<path id="Path 1" class="s1" d="m606 229.7c-1.9 0.2-8 0.8-13.5 1.3-5.5 0.6-12.7 1.5-16 2.1-3.3 0.5-8.5 1.5-11.5 2-3 0.6-12 2.7-20 4.6-8 2-19.7 5.3-26 7.3-6.3 2.1-16.2 5.8-22 8.3-5.8 2.5-13.6 5.9-17.5 7.7-3.9 1.7-13.8 7.2-22 12.1-8.3 4.9-19.3 12.2-24.6 16.2-5.3 3.9-12.5 9.6-16 12.6-3.5 2.9-9.1 7.9-12.4 11.1-3.3 3.1-8.9 8.8-12.4 12.6-3.6 3.8-10.8 12.3-16 18.9-5.3 6.6-12.6 16.6-16.3 22.3-3.8 5.6-6.8 10.5-6.8 11 0 0.4-0.7 1.4-1.5 2.2-0.7 0.8-4.9 8.5-9.2 17-4.4 8.5-8.8 17.8-10 20.5-1.1 2.8-3.3 8.1-4.7 12-1.4 3.9-2.6 7.7-2.6 8.5 0 0.8-0.3 1.9-0.7 2.3-0.4 0.5-1.4 3-2.1 5.5-0.7 2.6-2.2 8.3-3.3 12.7-1.1 4.4-2.6 11.1-3.4 15-0.8 3.9-2.1 12-3 18-0.8 6.1-1.5 12.7-1.5 14.8 0 2.9 0.7 4.4 3.3 6.8 1.7 1.7 4.1 3.3 5.2 3.6 1.2 0.3 3.9-0.5 6.5-1.9 2.6-1.5 4.8-3.5 5.2-4.9 0.4-1.3 0.8-4.3 0.8-6.6 0-2.4 0.7-8.9 1.5-14.5 0.9-5.7 2-11.9 2.5-13.8 0.5-1.9 1.6-6.4 2.5-10 0.8-3.6 2.6-9.9 3.9-14 1.4-4.1 3.6-10.6 4.9-14.5 1.4-3.9 3.5-9.5 4.7-12.5 1.2-3 4.3-9.8 6.9-15 2.6-5.2 6.7-12.9 9.1-17 2.5-4.1 6.9-11.1 9.9-15.5 3-4.4 7.3-10.5 9.5-13.5 2.2-3 6.6-8.4 9.6-12 3.1-3.6 9.7-10.7 14.6-15.9 4.9-5.1 13.8-13.5 19.9-18.6 6.1-5 14.8-11.9 19.5-15.2 4.7-3.3 13.4-8.8 19.5-12.3 6.1-3.5 15.3-8.3 20.5-10.8 5.2-2.4 10.4-4.7 11.5-5.2 1.1-0.4 4.5-1.8 7.5-3 3-1.3 8.9-3.4 13-4.7 4.1-1.4 8.9-2.8 10.5-3.3 1.6-0.5 6.4-1.8 10.5-3 4.1-1.2 12.7-3.2 19-4.5 6.3-1.3 16-3.1 21.5-3.9 5.5-0.8 13-1.7 16.8-2 5.8-0.5 6.6-0.8 6.1-2.3-0.3-1-0.8-4-1.1-6.8-0.3-3.7 0.1-6 1.4-8.7 1.1-2.1 1.9-3.7 1.9-3.6-0.1 0-1.7 0.3-3.6 0.5zm31.9 4.8c2 3.4 2.3 4.7 1.6 8.5-0.4 2.5-0.9 5-1.1 5.5-0.3 0.6 2.8 1.3 7.3 1.7 4.3 0.5 12.5 1.5 18.3 2.3 5.8 0.9 13.9 2.3 18 3.1 4.1 0.9 12.7 2.9 19 4.6 6.3 1.6 12.9 3.3 14.5 3.8 1.6 0.4 6.4 1.9 10.5 3.3 4.1 1.3 10 3.5 13 4.7 3 1.2 7.1 2.9 9 3.7 1.9 0.8 7.1 3.3 11.5 5.5 4.4 2.2 8.2 4.4 8.5 4.9 0.3 0.5 6.1-0.7 13-2.7 6.9-1.9 12.8-3.9 13.2-4.2 0.4-0.4 0.4-1.2 0-1.7-0.4-0.6-2.1-2-3.7-3.1-1.6-1.2-6.6-3.9-11-6.1-4.4-2.2-10-4.9-12.5-6.1-2.5-1.2-9.2-4.1-15-6.5-5.8-2.4-15.5-6.1-21.5-8.2-6-2.1-14.4-4.7-18.5-5.7-4.1-1.1-10.6-2.6-14.5-3.5-3.9-0.8-9-1.9-11.5-2.4-2.5-0.6-8.1-1.6-12.5-2.4-4.4-0.7-13.4-1.8-20-2.4-6.6-0.5-13.3-0.9-15-0.8l-2.9 0.2z"/>
		<path id="Path 2" class="s2" d="m612 184.9c-3 0.3 2.4 0.6 12 0.6 10.1 0 15.4-0.3 12.5-0.7-2.8-0.3-8.1-0.6-12-0.5-3.9 0-9.5 0.3-12.5 0.6zm34.5 1.8c1.6 0.2 4.8 0.2 7 0 2.2-0.2 0.9-0.4-3-0.4-3.9 0-5.6 0.2-4 0.4zm331 358.3c0 14.8 0.3 26.2 0.7 25.2 0.4-0.9 0.7-12.3 0.7-25.2 0-12.9-0.3-24.3-0.7-25.2-0.4-1-0.7 10.4-0.7 25.2zm-713.1-5.5c0 7.7 0.2 10.6 0.3 6.5 0.2-4.1 0.2-10.4 0-14-0.2-3.6-0.3-0.2-0.3 7.5zm104.6 10c-4.1 4.1-7.3 7.5-7 7.5 0.3 0 3.9-3.4 8-7.5 4.1-4.1 7.2-7.5 6.9-7.5-0.2 0-3.8 3.4-7.9 7.5zm-69 65.2l-8.5 8.8c13.6-13.2 17.5-17.1 17.5-17.3 0-0.1-0.1-0.2-0.3-0.2-0.1 0-4.1 3.9-8.7 8.7zm343.5 6.5l-7 7.3c11.3-10.9 14.5-14.1 14.5-14.3 0-0.1-0.1-0.2-0.3-0.2-0.1 0-3.4 3.3-7.2 7.2zm-15.5 14.5l-6.5 6.8c10.5-10.1 13.5-13.1 13.5-13.3 0-0.1-0.1-0.2-0.3-0.2-0.1 0-3.2 3-6.7 6.7zm-5 51l-6.5 6.8c10.5-10.1 13.5-13.1 13.5-13.3 0-0.1-0.1-0.2-0.3-0.2-0.1 0-3.2 3-6.7 6.7zm-2 86c2.5 0.2 6.8 0.2 9.5 0 2.8-0.2 0.7-0.3-4.5-0.3-5.2 0-7.5 0.1-5 0.3z"/>
		<path id="Path 3" class="s3" d="m620.5 185.7c2.2 0.2 6 0.2 8.5 0 2.5-0.2 0.7-0.4-4-0.4-4.7 0-6.7 0.2-4.5 0.4zm246.9 362.3c0 5.8 0.1 8 0.3 5 0.2-3 0.2-7.8 0-10.5-0.2-2.8-0.3-0.3-0.3 5.5zm-315.9 159.2l-6 6.1c10.5-9.1 13.5-11.9 13.5-12.1 0-0.1-0.4-0.2-0.8-0.2-0.4 0-3.5 2.8-6.7 6.2zm32 16l-7 7.3c11.3-10.9 14.5-14.1 14.5-14.3 0-0.1-0.1-0.2-0.3-0.2-0.1 0-3.4 3.3-7.2 7.2z"/>
		<path id="Path 4" class="s4" d="m641.5 187.7c2.8 0.2 6.8 0.2 9 0 2.2-0.2 0-0.3-5-0.3-5 0-6.8 0.1-4 0.3zm-267.8 99.6c-15.1 14.9-15.1 15-1.8 2.3 7.5-7.1 14.7-14 16.1-15.3 1.3-1.3 2.2-2.3 1.8-2.3-0.4 0-7.6 6.9-16.1 15.3zm494.7 260.7c0 6.3 0.1 8.8 0.3 5.5 0.2-3.3 0.2-8.5 0-11.5-0.2-3-0.3-0.3-0.3 6zm-602.1 7c0 4.1 0.2 5.9 0.4 4 0.2-1.9 0.2-5.3 0-7.5-0.2-2.2-0.4-0.6-0.4 3.5zm30.2 61.3l-8 8.2c12.8-12.4 16.5-16.1 16.5-16.2 0-0.2-0.1-0.3-0.3-0.3-0.1 0-3.8 3.7-8.2 8.3zm322.5 72.5l-6.5 6.7c10.5-10.1 13.5-13.1 13.5-13.2 0-0.2-0.1-0.3-0.3-0.3-0.1 0-3.2 3-6.7 6.8zm13 193.9c1.9 0.2 5.3 0.2 7.5 0 2.2-0.2 0.6-0.4-3.5-0.4-4.1 0-5.9 0.2-4 0.4z"/>
		<path id="Path 5" class="s5" d="m366.5 293.3l-7 7.2c11.3-10.9 14.5-14.1 14.5-14.3 0-0.1-0.1-0.2-0.3-0.2-0.1 0-3.4 3.3-7.2 7.2zm-101.1 246.3c0 8.2 0.2 11.4 0.3 7 0.2-4.4 0.2-11.2 0-15-0.1-3.9-0.3-0.3-0.3 8zm712 5c0 11 0.2 15.7 0.3 10.5 0.2-5.2 0.2-14.2 0-20-0.1-5.8-0.3-1.5-0.3 9.5zm-677.9 69.7l-9 9.3c14.3-14 18.5-18.1 18.5-18.3 0-0.1-0.1-0.2-0.3-0.2-0.1 0-4.3 4.2-9.2 9.2zm503.5 88.5l-6.5 6.8c10.5-10.1 13.5-13.1 13.5-13.3 0-0.1-0.1-0.2-0.3-0.2-0.1 0-3.2 3-6.7 6.7zm-185 71c3 0.2 8.2 0.2 11.5 0 3.3-0.2 0.8-0.3-5.5-0.3-6.3 0-9 0.1-6 0.3zm-0.5 110c3.8 0.2 9.7 0.2 13 0 3.3-0.2 0.1-0.3-7-0.3-7.2 0-9.9 0.1-6 0.3z"/>
		<path id="Path 6" class="s6" d="m611 296.7c4.7 0.2 12.5 0.2 17.5 0 5-0.1 1.1-0.3-8.5-0.3-9.6 0-13.7 0.2-9 0.3z"/>
		<path id="Path 7" fill-rule="evenodd" class="s0" d="m520.7 467c1.8 0 4.8 0.6 6.5 1.4 1.8 0.7 4.3 2.4 5.4 3.7 1.2 1.3 2.6 3.8 3.1 5.4 0.5 1.6 0.8 4.6 0.6 6.5-0.1 1.9-1.2 4.9-2.2 6.5-1.1 1.6-4.8 5.5-8.2 8.5-3.5 3-10.7 9.5-15.9 14.4-5.2 4.9-12.4 11.7-16 15-3.6 3.4-10.8 9.9-16 14.6-5.2 4.7-12.8 11.7-17 15.6-4.1 3.9-14.3 13.3-22.5 20.9-8.3 7.7-17.7 16.4-21 19.6-3.3 3.1-7.4 6.9-9 8.3-1.7 1.5-5.9 5.5-9.5 9-3.6 3.4-9.9 9.4-14 13.2-4.2 3.8-12.3 11.2-18 16.4-5.7 5.2-12.7 11.8-15.5 14.5-2.8 2.8-9.8 9.3-15.5 14.5-5.7 5.2-11.5 10.6-13 12-1.4 1.4-9.5 9-18 16.9-8.5 7.9-19.3 18.1-24 22.6-4.7 4.5-14.6 13.7-22 20.6-10.1 9.2-14.7 12.7-17.8 13.7-3.6 1-4.9 1-9-0.6-3.1-1.2-5.4-2.9-7-5.2-1.7-2.7-2.2-4.9-2.1-15.5l6.2-6c3.4-3.3 15.4-14.6 26.6-25 11.3-10.5 21.6-20.1 23-21.5 1.4-1.4 6.4-6.1 11.1-10.5 4.7-4.3 11.2-10.4 14.5-13.4 3.3-3.1 9.2-8.5 13-12.1 3.9-3.5 10.8-10 15.5-14.4 4.7-4.4 12.1-11.3 16.6-15.5 4.4-4.2 10.5-9.8 13.5-12.5 2.9-2.7 11.7-10.8 19.4-18 7.7-7.2 18-16.9 23-21.6 5-4.7 14.4-13.5 20.9-19.5 6.6-6 13.3-12.4 15.1-14 1.7-1.6 8-7.5 14-13 6-5.5 12.3-11.4 14-13 1.7-1.6 6.1-5.7 9.6-8.9 3.5-3.3 11.8-11 18.4-17.2 6.6-6.1 13.2-12.1 14.7-13.3 1.6-1.2 2.7-1.8 2.6-1.4-0.1 0.4 0.4 0.2 1.2-0.5 0.8-0.7 2.9-1.2 4.7-1.2zm140.6 48c2.3 0 5.9 0.6 7.9 1.5q3.8 1.5 3 2.7-0.7 1.3 0.5 0.5c0.8-0.4 1.9 0.3 2.9 2.1 1 1.5 1.9 5.4 2.5 14.7l-10.3 10c-5.7 5.5-19.8 18.8-31.3 29.5-11.5 10.7-24.3 22.6-28.5 26.5-4.1 3.9-11.3 10.6-16 14.9-4.7 4.4-11.9 11.2-16 15.1-4.1 3.9-13.8 12.9-21.5 20-7.7 7.1-16.9 15.6-20.4 18.9-3.5 3.4-6.9 6.6-7.5 7.1-0.7 0.5-3.9 3.5-7.1 6.5-3.3 3-11.9 10.9-19 17.6-7.2 6.6-15 13.8-17.5 16-2.5 2.1-6.1 5.5-8 7.4-1.9 2-9.4 9-16.5 15.6-7.2 6.7-15.3 14.2-18 16.7-2.8 2.6-6.8 5.9-8.9 7.4-2.9 2.1-5.1 2.8-8.5 2.8-2.8-0.1-6-0.9-8.1-2.2-2.2-1.3-4.2-3.6-5.3-6.2-0.9-2.2-1.7-5.3-1.7-6.8 0-1.6 1.2-4.8 2.8-7.3 1.6-2.5 4.4-5.8 6.3-7.4 1.9-1.6 6.7-6 10.6-9.7 4.7-4.4 7.8-6.6 8.5-6.1 0.8 0.4 1 0.3 0.6-0.3-0.5-0.6 5.3-6.8 12.9-14 7.5-7.1 16.9-15.9 20.7-19.5 3.8-3.6 10.2-9.5 14-13.1 3.9-3.6 13.2-12.1 20.6-19 7.4-6.8 14-12.8 14.6-13.4 0.6-0.5 5.6-5.1 11-10.1 5.5-5 11.2-10.3 12.9-11.8 1.6-1.6 8.4-7.8 15-13.9 6.6-6.2 13.1-12.4 14.5-13.8 1.4-1.4 6.3-6.1 11-10.5 4.7-4.3 16.2-15.1 25.5-23.9 9.4-8.8 20.8-19.6 25.5-24 4.7-4.5 11.6-10.9 15.3-14.3 6-5.5 7.2-6.2 11-6.2zm-122.1 26c2.1 0 5.4 0.7 7.3 1.5 1.9 0.8 4.2 2.5 5 3.8 0.8 1.2 1.9 3.8 2.5 5.7 0.5 1.9 0.7 5.1 0.3 7-0.5 2.3-2.5 5.3-5.8 8.5-2.7 2.8-9.9 9.6-15.9 15-6 5.5-12.5 11.6-14.6 13.5-2 1.9-7.7 7.3-12.6 12-4.9 4.7-13 12.4-17.9 17-5 4.6-12.2 11.3-16 14.9-3.9 3.6-13.3 12.5-20.9 19.6-7.6 7.1-16.1 15.2-18.9 17.9-2.9 2.7-7.1 6.4-9.5 8.3-3.7 2.9-4.9 3.3-10 3.3-4.5 0-6.4-0.6-9-2.5-2-1.6-3.8-4.2-4.8-7.2-1.3-4.1-1.3-5.4-0.2-9.2 1.1-3.8 3.7-6.7 17.3-19.6 8.8-8.3 18.5-17.4 21.5-20.1 3-2.7 9.5-8.8 14.5-13.5 4.9-4.7 15.5-14.6 23.5-22 7.9-7.4 15.8-14.8 17.5-16.4 1.7-1.6 9.1-8.7 16.5-15.6 7.4-6.9 15.1-13.9 17-15.6 1.9-1.7 4.8-3.7 6.5-4.6 1.6-0.9 4.7-1.6 6.7-1.7zm-232.2 209.7c2.5 0.3 5.8 1.6 7.5 2.8 1.6 1.2 3.6 3.8 4.4 5.6 0.8 1.9 1.5 5.2 1.5 7.4 0 2.4-0.8 5.2-2.1 7-1.1 1.6-7.2 7.9-13.4 13.9-6.3 6-12.8 11.5-14.4 12.4-1.8 0.9-4.8 1.3-7.7 1.1-3.7-0.3-5.4-1.1-8.3-3.9-2-1.9-4-4.9-4.4-6.5-0.4-1.6-0.6-4.9-0.5-7.2 0.2-2.4 1-5.3 1.8-6.5 0.8-1.3 7.2-7.5 14.1-13.8 6.9-6.3 13.6-11.8 14.8-12.2 1.2-0.4 4.2-0.4 6.7-0.1zm46.2 29.2c2.4 0.3 5.7 1.5 7.5 2.6 1.8 1.1 3.9 3.2 4.8 4.8 0.8 1.5 1.5 4.7 1.5 7.2 0 2.5-0.6 5.7-1.4 7.3-0.8 1.5-3.8 5-6.8 7.7-3 2.8-9.8 9-15.2 14-5.4 5-12.2 11.3-15 14-2.8 2.8-12.1 11.6-20.6 19.5-8.5 8-20.4 19-26.4 24.5-6 5.5-13.2 12.2-16 14.8-2.8 2.6-7.1 6.2-9.6 7.8-3.7 2.5-5.3 3-9 2.7-2.5-0.2-5.9-1.3-7.5-2.5-1.7-1.1-3.8-3.8-4.9-5.9-1.3-2.8-1.7-5.1-1.2-7.9 0.3-2.2 1.6-5.3 2.8-6.9 1.3-1.7 17.6-17.4 36.3-35 18.8-17.7 37.2-35 41-38.5 3.9-3.5 11.4-10.6 16.7-15.8 5.4-5.1 11.8-10.6 14.2-12.1 3.7-2.3 5.2-2.7 8.8-2.3zm403 164.8c4.6 0.2 9 0.6 9.8 1 0.8 0.3 2.4 0.7 3.5 0.8 1.1 0.1 2.1 0.7 2.2 1.4 0.2 0.6 1.1 0.8 2 0.5 1-0.4 3.8 0.4 6.3 1.7 2.5 1.3 6.7 4 9.5 6 2.7 2 6.6 5.4 8.6 7.5 2 2.2 5.3 6.3 7.3 9.2 2 2.8 3.6 5.5 3.6 6 0 0.4 0.6 2.1 1.4 3.7 0.9 1.6 2.5 6.8 3.6 11.5q2.1 8.5 1.9 16c-0.1 4.1-1 10.2-1.9 13.5-1 3.3-2.9 8.5-4.4 11.5-1.4 3-4 7.3-5.6 9.5-1.6 2.2-3.6 5-4.5 6.3-1.4 2.1-1.2 2.6 4.2 10.8 5.6 8.3 5.7 8.6 3.8 10-1.1 0.8-3.5 1.4-5.3 1.4-1.7 0-3.5 0.2-4 0.3-0.4 0.2-1.4 0.7-2.2 1-0.8 0.4-3.5 1.1-6 1.6-4.4 1-4.6 0.9-7.5-2.4-2.7-3.1-3.5-3.4-7.6-3.2-2.6 0.1-4.5 0.5-4.3 1 0.2 0.4-0.8 0.9-2.4 1.2-1.5 0.2-4.7 0.8-7.2 1.2-2.5 0.4-8.1 0.8-12.5 0.7-4.4 0-10.5-0.5-13.6-1-3-0.5-6.4-1.6-7.4-2.4-1-0.8-2.1-1.4-2.4-1.3-0.3 0.1-3.1-0.9-6.1-2.3-4.4-2.1-5.2-2.8-4-3.6 1.2-0.8 1.2-0.9-0.3-0.4-1 0.4-2.7-0.3-4.5-1.9-1.5-1.4-3-2.5-3.5-2.5-0.4 0-3.4-3.4-6.7-7.5-3.3-4.1-6.3-8.7-6.7-10.2-0.3-1.6-0.9-3-1.2-3.3-0.3-0.3-1.2-2.1-1.9-4-0.7-1.9-1.9-5.7-2.7-8.5-0.7-2.7-1.4-9.3-1.5-14.5-0.1-5.2 0.4-11.5 1-14 0.7-2.5 1.3-5.2 1.5-6 0.1-0.8 1.3-4 2.6-7 1.2-3 4.2-8.2 6.6-11.5 2.3-3.3 5.2-7.1 6.3-8.5 1.7-2.1 2.1-2.3 3.1-1 0.9 1.3 1 1.2 0.5-0.2-0.4-1.3 0.8-2.8 4.6-5.6 2.9-2.1 6.9-4.7 8.8-5.7 1.9-1 4.3-2.2 5.2-2.6 1-0.5 2.8-0.9 4.1-0.9 1.3 0 2.7-0.5 3.2-1 0.6-0.6 3.9-1.3 7.5-1.6 3.6-0.3 6.6-0.7 6.7-0.8 0.1-0.1 3.9 0 8.5 0.1zm-25.2 36.2c-1.9 1.5-4.7 4.8-6.2 7.2-1.5 2.4-3.5 7-4.3 10.2-0.8 3.1-1.5 8.2-1.5 11.2 0 3 0.6 7.9 1.4 10.8 0.7 2.8 2 6.5 2.8 8.2 0.9 1.7 3.5 5 6 7.5 2.4 2.5 6.4 5.5 8.9 6.8 2.4 1.2 6.9 2.7 9.9 3.2 3 0.6 5.6 1 5.7 1 0.2 0 0.3-0.6 0.3-1.2 0-0.7-2-4.3-4.5-8-3.7-5.7-4.3-7.1-3.3-8.3 1-1.3 3.6-1.6 12.5-1.5 8.7 0 12.1 0.4 14.9 1.8 3.5 1.6 3.6 1.6 4.7-0.3 0.6-1.1 2-4.5 2.9-7.5 1-3.1 1.8-8.6 1.8-12.5 0-3.9-0.7-9.5-1.5-12.5-0.8-3-2.6-7.2-4-9.2-1.4-2.1-4.4-5.2-6.8-6.8-2.3-1.7-6.6-4-9.5-5-3.1-1.2-7.5-2-11-1.9-3.1 0-8 1-10.7 2-2.8 1.1-6.6 3.2-8.5 4.8zm-347.5-35.3c20.9 0.1 38.8 0.3 39.7 0.5 1 0.2 2 1.5 2.2 2.9 0.3 1.4 0.3 6.5 0.1 11.5-0.2 5-0.4 9.3-0.4 9.7-0.1 0.5-12.7 0.7-28.2 0.7-15.5-0.1-28.3 0-28.5 0.2-0.2 0.2-0.5 6.1-0.7 13.1-0.1 6.9 0.2 13 0.6 13.5 0.5 0.4 10.9 0.8 23.2 0.8 12.3 0 22.6 0.2 22.9 0.5 0.3 0.3 0.7 4.9 0.9 10.2 0.1 6.9-0.2 10.1-1.1 11-1 1-6.8 1.4-23 1.5-15.9 0.2-22 0.6-23 1.5-1 1-1.3 6.7-1.2 24.1 0 17.3-0.3 22.8-1.3 23.1-0.6 0.2-6.6 0.3-25.2 0.1l-0.5-124.5 2.7-0.3c1.6-0.1 19.9-0.2 40.8-0.1zm497.5-0.3c4.7-0.1 9.6 0.1 10.8 0.5 1.5 0.4 3.1 2.3 4.3 4.9 1 2.4 1.7 4.8 1.4 5.3-0.3 0.5 0.2 1.6 1 2.2 0.9 0.7 1.6 1.9 1.5 2.5 0 0.7 0.9 3.7 2.1 6.5 1.2 2.9 2.8 7.1 3.6 9.3 0.9 2.2 2 4.9 2.5 6 0.5 1.1 1 2.7 1.1 3.5 0.2 0.8 1.3 3.7 2.5 6.5 1.3 2.7 2.2 5.6 2.2 6.2 0 0.7 1.1 3.4 2.3 6 1.3 2.7 3 7 3.7 9.8 0.7 2.7 1.9 6 2.7 7.2 0.7 1.3 1 2.3 0.5 2.3-0.4 0-0.1 0.5 0.6 1.2 0.7 0.7 1.2 2 1.2 2.8 0 0.8 0.7 2.8 1.5 4.5 0.9 1.7 1.5 3.7 1.5 4.5 0 0.8 0.4 2 1 2.5 0.6 0.5 1.2 1.7 1.4 2.5 0.1 0.8 0.7 2.4 1.1 3.5 0.5 1.1 1.7 4.2 2.8 7 1 2.7 2.4 7.2 3.1 9.8 0.8 3.7 0.8 5.2-0.2 6.7-1.1 1.8-2.4 2-25.2 2l-3-6.3c-1.7-3.4-3.1-6.9-3.3-7.9-0.1-0.9-0.6-2-1-2.5-0.4-0.4-0.7-1.5-0.7-2.3 0-0.8-0.4-2.1-0.8-2.8-0.5-1-5.9-1.3-23-1.2-12.2 0-22.9 0.3-23.8 0.7-0.8 0.5-3.1 5.1-5.1 10.3-2 5.2-4.1 10-4.7 10.7-0.6 0.6-5.6 1.3-11.6 1.6-8.8 0.5-10.9 0.3-13-1.1-1.4-0.9-2.6-2.8-2.8-4.2-0.2-1.4 0.5-4.8 1.4-7.5 0.9-2.8 2.5-6.8 3.4-9 1-2.2 2.6-6.6 3.6-9.8 1.1-3.1 2.2-5.7 2.6-5.7 0.5 0 0.8-0.8 0.8-1.8 0-0.9 0.6-3.3 1.3-5.2 0.7-1.9 1.8-4.4 2.4-5.5 0.6-1.1 1.1-2.3 1.2-2.8 0.1-0.4 0.6-2.2 1.2-4 0.6-1.7 1.8-5 2.6-7.2 0.9-2.2 1.9-4.9 2.4-6 0.4-1.1 2-4.9 3.4-8.5 1.5-3.6 4-10.1 5.6-14.5 1.6-4.4 3.4-9.1 4-10.5 0.6-1.4 1.7-3.7 2.5-5.3 0.8-1.5 1.4-3.4 1.4-4.2 0-0.8 0.4-2.3 0.9-3.3 0.5-0.9 1.7-3.4 2.7-5.4 1.7-3.3 2.4-3.8 5.9-4.1 2.2-0.1 7.8-0.3 12.5-0.4zm-11.9 68.7c-1.2 3.6-1.8 6.7-1.5 7 0.3 0.3 5.6 0.5 11.7 0.5h11.2c-0.2-3.9-2.7-11-5.6-18.4-3-7.3-5.7-13.5-6-13.7-0.4-0.2-2.3 3.8-4.2 8.9-2 5-4.5 12.1-5.6 15.7zm-217.1-67v11.7c0 8.2 0.4 12.2 1.2 13.1 0.9 0.8 4.4 1.2 19.8 1.2v10c0 8.7-0.2 10.1-1.8 10.5-0.9 0.3-5 0.3-9 0.1-4.9-0.4-7.7-0.2-8.8 0.7-1.3 1-1.5 4.8-1.5 24.7 0.1 16.8 0.4 24.3 1.3 26.2 0.7 1.5 2.9 3.7 4.8 5.1 2 1.3 4.5 2.2 6 2 1.4-0.2 4.1-0.6 9.5-1.5v9.7c0 8.6-0.2 9.9-2 11.1-1.4 1-5.6 1.4-13.5 1.5-10.1 0.1-12.2-0.1-16.9-2.2-3.2-1.4-6.9-4.1-9-6.5-2-2.3-4.4-6.6-5.5-9.5-1.6-4.7-1.9-9.2-2.2-32.9-0.3-15.1-0.5-27.6-0.7-27.7-0.1-0.1-2.5-0.3-5.2-0.4-2.8-0.1-5.9-0.5-7-0.9-1.7-0.6-2-1.8-2.3-8.1-0.1-4.1 0-8.4 0.3-9.7 0.5-2 1.1-2.2 7-2.2 3.6 0 6.7-0.5 7-1 0.3-0.5 0.6-5.4 0.6-10.8 0.1-5.3 0.5-10.7 1-12 0.8-2.1 1.3-2.2 26.9-2.2zm-179.5 24.1c6.6-0.1 13.6 0.3 15.5 0.9 1.9 0.6 4.6 1.3 6 1.6 1.4 0.3 4.3 1.6 6.5 2.9 2.2 1.3 5.4 3.8 7.2 5.7 1.7 1.8 4.1 5.3 5.4 7.8 1.2 2.5 2.6 7.2 3 10.5 0.4 3.3 0.6 20.4 0.4 69.9l-7.5 1.2c-4.1 0.7-9.4 1.3-11.8 1.3-3.2 0.1-4.3-0.3-4.8-1.7-0.3-0.9-0.9-2.5-1.2-3.4-0.7-1.7-0.9-1.7-3.7-0.2-1.7 0.9-5.5 2.5-8.5 3.7-4.1 1.5-7.7 2.1-14.5 2-7.6 0-9.9-0.4-14.5-2.6-3-1.4-7.3-4.3-9.5-6.5-2.2-2.1-4.7-5.4-5.6-7.3-0.9-1.9-2.2-5-2.8-6.9-0.6-1.9-1.1-5.5-1.1-8 0-2.5 0.6-6.1 1.2-8 0.7-1.9 2.4-5.3 3.8-7.4 1.4-2.2 4.3-5.4 6.5-7.1 2.2-1.7 6.7-4.2 10-5.4 3.3-1.3 8-2.8 10.5-3.4 2.5-0.6 9.2-1.1 15-1.2 10.3-0.1 10.5-0.2 10.8-2.6 0.2-1.4-0.9-4.2-2.5-6.6-1.5-2.4-4.4-5-6.3-5.9-2.7-1.2-5.4-1.5-12-1.1-4.7 0.3-9.4 0.8-10.5 1-1.1 0.3-3.8 1.2-6 2.1-2.2 0.9-4.5 1.6-5 1.6-0.6 0-1.8-1.4-2.7-3.2-0.9-1.8-2.7-5.1-4-7.3-1.3-2.2-2.8-4.3-3.3-4.6-0.6-0.4-0.7-1.2-0.3-1.8 0.5-0.6 3.4-2.3 6.5-3.8 3.2-1.5 8.5-3.4 11.8-4.3 3.7-1.1 10.5-1.7 18-1.9zm-7 62.1c-3 2.4-3.5 3.4-3.5 7 0 2.4 0.6 5 1.3 5.9 0.7 0.9 2.2 2.1 3.4 2.7 1.3 0.7 4.3 1.2 6.8 1.2 2.5 0 5.5-0.5 6.7-1.1 1.3-0.6 3.3-2.1 4.6-3.3 1.9-1.8 2.2-3.1 2.2-9.4v-7.2c-7.4 0.2-11.4 0.6-13.8 0.9-2.4 0.3-5.7 1.8-7.7 3.3zm107-62.1c7.5 0.1 12.1 0.7 14.5 1.7 1.9 0.9 3.9 1.5 4.5 1.4 0.5-0.1 2.7 0.4 4.7 1.3 2.1 0.8 3.8 2.1 3.8 2.7-0.1 0.7-1.1 3.1-2.3 5.3-1.2 2.2-2.5 4.2-2.9 4.5-0.3 0.3-0.9 1.6-1.3 3-0.3 1.4-1.2 3.3-1.8 4.2-1.1 1.7-1.5 1.7-5.7 0.2-2.5-0.8-7.7-1.5-11.5-1.6-3.9 0-8.2 0.4-9.8 1.1-1.7 0.7-2.9 2.1-3.3 3.8-0.6 2.3-0.1 3.2 2.7 5.5 1.9 1.5 4 2.8 4.6 2.8 0.7 0 3.2 0.9 5.5 2 2.4 1.1 4.9 2 5.5 2 0.7 0 3.9 1.3 7 2.9 3.2 1.6 7.3 4.1 9.2 5.7 1.8 1.6 4.6 5.1 6.2 7.9 2.5 4.4 2.8 6 2.9 13.5 0 6.6-0.4 9.3-1.9 12-1.1 1.9-2.4 4.5-3 5.7-0.6 1.3-2.8 3.5-4.9 5-2 1.6-4.3 3.4-5 4-0.6 0.7-3.8 2.3-7 3.4-4.7 1.8-7.9 2.2-18.2 2.2-10.4 0-13.5-0.4-18.5-2.2-3.3-1.2-8.4-3.4-11.3-4.9-2.9-1.5-5.2-3.3-5.2-4 0-0.6 2.1-4.6 4.7-8.8 2.7-4.2 5.6-8.3 6.5-9.3 1.7-1.5 2-1.4 5.5 1.1 2.1 1.5 5.8 3.4 8.3 4.3 2.5 0.8 6.6 1.5 9.2 1.5 2.7 0 6-0.6 7.5-1.3 1.5-0.6 3.6-2 4.5-3 1-0.9 1.8-2.8 1.8-4.2 0-1.7-1.1-3.3-3.3-4.8-1.7-1.3-4.6-2.9-6.2-3.6-1.7-0.7-3.8-1.7-4.8-2.2-0.9-0.5-2.2-0.9-2.7-0.9-0.6 0-4.5-1.6-8.8-3.5-4.2-2-9.2-5-11.1-6.8-1.8-1.8-4.2-5-5.2-7.2-1.3-2.7-1.9-6.3-1.9-11.3 0-5.1 0.6-8.5 2-11.7 1.1-2.5 3.9-6.6 6.2-9.1 2.4-2.6 5.4-5.1 6.8-5.6 1.4-0.6 4.7-1.9 7.5-2.9 3.9-1.5 7.5-1.8 16-1.8z"/>
		<path id="Path 8" class="s7" d="m916 294.5c-2.5 0.7-8.1 2.3-12.5 3.5-4.4 1.2-23.8 6.4-43 11.5-19.3 5.1-41.5 11.1-49.5 13.3-8 2.2-23.5 6.3-34.5 9-11 2.8-27.2 6.9-36 9.3-8.8 2.3-18.5 4.7-21.5 5.4-3 0.7-15.2 3.8-27 6.8-11.8 3.1-26.9 7-33.5 8.7-6.6 1.8-13.7 3.6-15.8 4.1-2 0.5-5.4 1.3-7.4 1.8-2.1 0.5-14.6 3.7-27.8 7.1-13.2 3.4-26 6.6-28.5 7-2.5 0.5-7.2 1.6-10.5 2.5-3.3 0.9-6.9 2.2-8 2.9-1.1 0.7-3.3 2.6-4.8 4.2-1.5 1.6-3 4.3-3.3 5.9-0.3 1.6-0.4 4.8-0.1 7 0.2 2.2 1 5.1 1.6 6.5 0.7 1.4 2.8 3.5 4.6 4.7 2.5 1.7 5.5 2.4 10.8 2.8 3.9 0.2 26.3 0.7 49.7 1 23.4 0.3 50.4 0.8 60 1 9.6 0.3 29 0.7 43 1 14 0.3 25.8 0.9 26.3 1.3 0.4 0.4 0.5 1.4 0.2 2.2-0.3 0.8-9.6 10.3-20.7 21-11.1 10.7-28.1 27.2-37.8 36.7-9.6 9.4-18.9 18.2-20.5 19.6-1.6 1.3-4.9 4.6-7.1 7.3l-4.2 4.9c5.7 0.3 7.6-0.2 8-0.8 0.6-0.9 0.8-0.9 0.8 0 0 0.7 0.6 1.3 1.2 1.3 0.7-0.1 2.1 0.7 3.1 1.7 0.9 1 1.4 2.2 1 2.6-0.5 0.5-0.3 0.7 0.2 0.5 0.5-0.1 2.1 0.5 3.5 1.5 1.4 0.9 2.2 1.7 1.7 1.7-0.4 0-0.1 1.9 0.7 4.2 0.7 2.4 1.2 4.9 1 5.5-0.3 0.8 0.3 1.1 1.3 0.8 1-0.3 5.3-3.8 9.5-7.8 4.2-3.9 11-10.3 15-14.2 4-3.8 17.2-16.6 29.3-28.5 12.1-11.8 24.6-23.9 27.8-26.8 3.1-2.8 6.2-5 6.7-4.7 0.5 0.3 1 1.6 1 3 0 1.4-0.6 5.3-1.4 8.7-0.8 3.5-1.7 7.7-2 9.3-0.3 1.6-1.6 8.6-2.9 15.5-1.4 6.9-2.7 13.9-3 15.5-0.3 1.6-1.9 9.1-3.5 16.5-1.6 7.4-3.5 16.4-4.2 20-0.7 3.6-1.6 8.3-2 10.5-0.4 2.2-1.9 9.6-3.4 16.5-1.5 6.9-4 19-5.6 27-1.6 8-4.3 21.2-6 29.5-1.6 8.2-3.5 17.5-4.2 20.5-0.6 3-1.7 8-2.5 11-0.7 3-1.3 6.5-1.3 7.7 0 1.3 0.9 4 1.9 6 1 2.1 3 4.8 4.3 6 1.2 1.2 3.5 2.6 5 3.2 1.6 0.6 4.6 1.1 6.8 1.1 2.2 0 5.5-0.6 7.2-1.3 1.8-0.7 4.9-2.9 6.8-4.9 1.9-1.9 4.3-5.7 5.4-8.4 1-2.7 3.2-7.8 4.8-11.4 1.6-3.6 3.6-7.9 4.4-9.5 0.7-1.6 8.6-19.6 17.5-40 8.8-20.4 17.1-39.3 18.4-42 1.2-2.8 3.1-7 4.3-9.5 1.1-2.5 6.4-14.2 11.7-26 5.3-11.8 10.6-23.5 11.7-26 1.1-2.5 5.4-11.9 9.5-21 4.2-9.1 9.1-19.9 11-24 1.9-4.1 4.5-9.8 5.8-12.5 1.3-2.8 5.1-11.1 8.5-18.5 3.4-7.4 7.4-16.2 9-19.5 1.5-3.3 5.2-10.9 8-17 2.9-6.1 7.2-15.5 9.7-21 2.5-5.5 10.6-23.1 18-39 8.7-18.7 13.3-29.9 13.1-31.5-0.3-2.3-0.8-2.5-5.3-2.6-2.8-0.1-7 0.4-9.5 1.1z"/>
		<path id="Path 9" class="s1" d="m928.3 501.2c-0.5 0.7-1.3 2.2-1.6 3.3-0.3 1.1-1.7 5.1-3.1 9-1.5 3.9-3.3 8.4-4 10-0.8 1.6-2.2 4.8-3.1 7-0.9 2.2-2 6.5-2.3 9.6-0.7 5.4-0.6 5.6 1.3 4.3 1.1-0.7 3.6-1.6 5.5-1.9 1.9-0.4 5.1-0.2 7 0.3 1.9 0.5 4.2 1.3 5 1.6 1.1 0.5 1.6-0.1 1.7-2.1 0.1-1.6-0.2-9.1-0.8-16.8-0.5-7.7-1.4-16.2-2.1-19-0.6-2.7-1.4-5.4-1.8-5.8-0.3-0.4-1.1-0.2-1.7 0.5zm-14.9 73.6c-0.4 1-1.7 7.8-2.9 15.2-1.3 7.4-4 19.1-6 26-2 6.9-4.8 15.4-6.1 19-1.4 3.6-3.9 9.6-5.6 13.5-1.7 3.9-4.9 10.8-7.1 15.5-2.3 4.7-6.4 12.3-9.2 17-2.8 4.7-7.3 11.6-10 15.5-2.7 3.9-8.3 11.3-12.6 16.5-4.2 5.2-11.5 13.4-16.1 18.1-4.5 4.7-11.8 11.6-16 15.2-5.1 4.4-7.5 7.1-7 7.9q0.7 1.3-0.5 0.5c-0.8-0.4-5.2 2.2-11.5 7-5.7 4.3-15 10.7-20.8 14.2-5.8 3.5-16.3 9.2-23.5 12.6-7.1 3.4-17.3 7.8-22.5 9.7-5.2 1.9-12.9 4.5-17 5.8-4.1 1.3-9.1 2.7-11 3.2-1.9 0.5-5.1 1.3-7 1.8-1.9 0.5-6.6 1.7-10.5 2.5-3.8 0.9-9.7 2-13 2.4-3.3 0.4-6.4 1-7 1.3-0.5 0.3-4.1 0.9-8 1.2-3.8 0.4-11.2 1.2-16.3 1.9-6.8 0.9-8.9 1.5-7.8 2.2 1.1 0.7 1.5 2.8 1.6 7.3 0 3.4-0.4 7.1-1 8.2-1 2-0.8 2 12.3 1.4 7.2-0.3 14.6-1 16.2-1.5 1.7-0.5 4.7-0.9 6.8-0.9 2 0 5.6-0.4 8-1 2.3-0.5 7.8-1.7 12.2-2.6 4.4-0.9 12.7-3 18.5-4.6 5.8-1.6 15.8-4.7 22.3-6.8 6.4-2.2 12.5-4.4 13.5-4.9 0.9-0.5 2.8-1.3 4.2-1.9 1.4-0.6 5.4-2.4 9-4 3.6-1.6 10.6-4.9 15.5-7.3 5-2.4 9.2-4.6 9.5-4.9 0.3-0.3 5.3-3.6 11.3-7.3 5.9-3.7 10.5-7.2 10.2-7.7-0.3-0.5-0.2-0.9 0.3-0.9 0.4 0.1 1.3 0.1 2 0 0.7 0 0.9-0.6 0.5-1.3q-0.8-1.3 0.5-0.5c0.7 0.4 3-0.7 5.7-2.8 2.5-1.9 4.4-4 4.3-4.7-0.2-0.7 0.4-1.2 1.3-1.3 0.9 0 3.1-1.1 4.9-2.5 1.8-1.4 5.4-4.3 7.9-6.4 2.5-2.2 9.3-8.7 15-14.5 5.7-5.8 13.3-14.2 17-18.6 3.6-4.4 8.5-10.5 10.8-13.5 2.2-3 6.6-9.3 9.6-14 3-4.7 6.5-10.3 7.7-12.5 1.3-2.2 4.7-9 7.8-15 3-6 7.5-16 10-22 2.4-6 6-15.7 7.9-21.5 1.9-5.8 3.8-12.3 4.3-14.5 0.5-2.2 1.6-6.7 2.5-10 0.8-3.3 2.2-9.1 3-13 0.8-3.9 1.6-9.8 1.7-13.1 0.3-6 0.2-6.1-1.7-4.8-1.1 0.8-4.2 1.4-7 1.4-2.7 0-6.2-0.6-7.8-1.4-2.4-1.3-2.8-1.2-3.3 0.2zm-407.6 229.5c-4.1 3.7-6.5 6.6-6 7.3 0.4 0.6 2.3 1.8 4.2 2.6 1.9 0.9 6 2.6 9 3.8 3 1.3 9.3 3.5 14 5 4.7 1.5 12.1 3.7 16.5 4.9 4.4 1.2 12.1 3.1 17 4.2 5 1.2 12.2 2.5 16 3 3.9 0.5 11.3 1.4 16.5 1.9 5.2 0.5 11 1.2 12.8 1.5 3 0.5 3.1 0.4 2.1-1.7-0.8-1.5-1-5-0.5-10l0.6-7.8c-4.3-0.8-10.7-1.7-17-2.5-6.3-0.8-13.1-1.7-15-2-1.9-0.3-6-1-9-1.6-3-0.6-7.5-1.7-10-2.4-2.5-0.8-6.5-1.9-9-2.5-2.5-0.7-10.7-3.2-18.2-5.6-7.6-2.4-14.6-4.4-15.5-4.4-1 0.1-4.8 2.9-8.5 6.3zm117 155c-0.1 2.3-0.2 5.6-0.3 7.4 0 1.7-0.4 3.5-0.8 4-0.5 0.4-3 1.1-5.5 1.4l-4.7 0.6c7.8 0.2 10.5-0.1 11.2-0.5 0.6-0.4 1.3-4.1 1.5-9 0.1-4.5 0-8.2-0.4-8.2-0.5 0-0.9 1.9-1 4.3zm-255.4 91.7c0 8.5 0.2 11.9 0.3 7.5 0.2-4.4 0.2-11.4 0-15.5-0.1-4.1-0.3-0.5-0.3 8zm306.3 11c0.2 3.6 0.7 6.7 0.9 7 0.3 0.3 0.4-1.3 0.3-3.5-0.1-2.2-0.5-5.3-0.9-7-0.6-2-0.7-0.8-0.3 3.5zm-327.2 9.7c2.8 0.2 7.5 0.2 10.5 0 3-0.2 0.8-0.3-5-0.3-5.8 0-8.2 0.1-5.5 0.3z"/>
		<path id="Path 10" class="s2" d="m580.5 420.7c2.8 0.2 6.8 0.2 9 0 2.2-0.2 0-0.3-5-0.3-5 0-6.8 0.1-4 0.3zm155.8 61.8c-2.9 3-4.5 5.1-3.6 4.6 1-0.5 3.5-2.7 5.5-5 2.1-2.2 3.8-4.3 3.8-4.6 0-0.3-0.1-0.5-0.3-0.5-0.1 0.1-2.6 2.6-5.5 5.5zm-62.2 13.6c-3.6 3.4-5.4 5.3-4 4.3 1.3-1.1 4.5-3.8 7-6.1 2.5-2.4 4.3-4.3 4-4.3-0.3 0-3.4 2.8-7 6.1zm43 5.7l-6.5 6.7c10.5-10.1 13.5-13.1 13.5-13.2 0-0.2-0.1-0.3-0.3-0.3-0.1 0-3.2 3-6.7 6.8zm-40 38l-8.5 8.7c13.6-13.2 17.5-17.1 17.5-17.2 0-0.2-0.1-0.3-0.3-0.3-0.1 0-4.1 3.9-8.7 8.8zm-167 20l-6.5 6.7c10.5-10.1 13.5-13.1 13.5-13.2 0-0.2-0.1-0.3-0.3-0.3-0.1 0-3.2 3-6.7 6.8zm119 25l-6.5 6.7c10.5-10.1 13.5-13.1 13.5-13.2 0-0.2-0.1-0.3-0.3-0.3-0.1 0-3.2 3-6.7 6.8zm-209.5 14.5l-7 7.2c11.3-10.9 14.5-14.1 14.5-14.2 0-0.2-0.1-0.3-0.3-0.3-0.1 0-3.4 3.3-7.2 7.3zm43.5 50.5l-6.5 6.7c10.5-10.1 13.5-13.1 13.5-13.2 0-0.2-0.1-0.3-0.3-0.3-0.1 0-3.2 3-6.7 6.8zm-129 185l-6.5 6.7c10.5-10.1 13.5-13.1 13.5-13.2 0-0.2-0.1-0.3-0.3-0.3-0.1 0-3.2 3-6.7 6.8zm93.2 123.5c-0.1 5.9-0.5 11.5-0.8 12.5-0.5 1.6-0.5 1.6 0.5 0 0.7-1.1 1-6.1 0.8-12.5l-0.3-10.8zm-88.8 15.3c0 13.7 0.2 19.6 0.4 13 0.1-6.7 0.1-17.9 0-25-0.2-7.2-0.4-1.8-0.4 12zm31 9.5c0 5.2 0.1 7.2 0.3 4.5 0.3-2.8 0.3-7.1 0-9.5-0.2-2.5-0.3-0.3-0.3 5zm252.6 29.2l0.5 17.3c0.4-25.6 0.2-33.4-0.2-33.8-0.4-0.3-0.6 7.1-0.3 16.5zm31.5-15.9c-0.3 0.7-0.4 5.5-0.2 10.7l0.2 9.5c0.8-16.7 0.9-21.6 0.7-21.6-0.1 0-0.5 0.6-0.7 1.4zm-182 11.4c2.2 0.2 6 0.2 8.5 0 2.5-0.2 0.7-0.4-4-0.4-4.7 0-6.7 0.2-4.5 0.4zm47.9 15.3c0 5.7 0.1 8 0.3 5 0.3-3.1 0.3-7.8 0-10.5-0.2-2.8-0.3-0.3-0.3 5.5zm134 5.5c0 6.5 0.2 9 0.4 5.5 0.1-3.6 0.1-9-0.1-12-0.1-3.1-0.3-0.2-0.3 6.5zm-315 18.5c0 12.9 0.2 18 0.4 11.5 0.1-6.6 0.1-17.2 0-23.5-0.2-6.4-0.4-1-0.4 12zm31 9c0 6.3 0.2 8.7 0.4 5.5 0.1-3.3 0.1-8.5 0-11.5-0.2-3.1-0.4-0.4-0.4 6zm523.6-6.3c5.3 0.2 6.8 0.7 8.3 2.5 1 1.2 1.8 1.7 1.8 1-0.1-0.7-0.8-1.9-1.6-2.7-1.1-1.1-3.4-1.5-8.2-1.4l-6.8 0.2z"/>
		<path id="Path 11" class="s3" d="m544 618.7l-6.5 6.7c10.9-9.9 14.2-12.9 14.4-13.1 0.2-0.2 0-0.3-0.5-0.3-0.5 0-3.9 3-7.4 6.7zm-130.3 379.4c2.1 0.8 2.3 1.7 2.5 8.6l0.2 7.8c0.5-12.5 0.2-15.4-0.7-16.3-0.6-0.7-1.9-1.2-2.7-1.2-0.9 0.1-0.6 0.5 0.8 1.1z"/>
		<path id="Path 12" class="s4" d="m331 637.4c-2.5 2.4-5.4 5.4-6.5 6.7-1 1.3 1.1-0.5 4.8-4.1 3.7-3.6 6.7-6.6 6.7-6.7 0-0.2-0.1-0.3-0.3-0.3-0.1 0-2.2 2-4.7 4.4zm-60 56.3l-7.5 7.7c11-10 14.5-13.5 14.7-14.1 0.3-0.7 0.5-1.3 0.4-1.3-0.1 0-3.5 3.5-7.6 7.7zm-16.5 15.6l-7 7.2c11.3-10.8 14.5-14.1 14.5-14.2 0-0.2-0.1-0.3-0.3-0.3-0.1 0-3.4 3.3-7.2 7.3zm28.5 15.2c-4.1 4.1-7.3 7.5-7 7.5 0.3 0 3.9-3.4 8-7.5 4.1-4.1 7.2-7.5 6.9-7.5-0.2 0-3.8 3.4-7.9 7.5zm26.5 58.8l-7 7.2c11.3-10.8 14.5-14.1 14.5-14.2 0-0.2-0.1-0.3-0.3-0.3-0.1 0-3.4 3.3-7.2 7.3zm-14 43l-7 7.2c11.3-10.8 14.5-14.1 14.5-14.2 0-0.2-0.1-0.3-0.3-0.3-0.1 0-3.4 3.3-7.2 7.3zm-52 49l-9 9.2c14.3-14 18.5-18.1 18.5-18.2 0-0.2-0.1-0.3-0.3-0.3-0.1 0-4.3 4.2-9.2 9.3zm389 71.4c3.3 0.2 8.9 0.2 12.5 0 3.6-0.2 0.9-0.3-6-0.3-6.9 0-9.8 0.1-6.5 0.3zm-162.5 24c2.5 0.2 6.1 0.2 8 0 1.9-0.2-0.1-0.4-4.5-0.4-4.4 0-6 0.2-3.5 0.4zm-102.7 17.3c0 4.1 0.2 5.9 0.4 4 0.2-1.9 0.2-5.3 0-7.5-0.2-2.2-0.4-0.6-0.4 3.5zm5.7 10.7c1.9 0.2 5.3 0.2 7.5 0 2.2-0.2 0.6-0.4-3.5-0.4-4.1 0-5.9 0.2-4 0.4zm143.9 30.1c-0.1 11.9 0 25.7 0.1 30.7 0.1 5 0.4 9.2 0.6 9.5 0.3 0.3 0.4-13.6 0.4-30.7 0-17.2-0.2-31.3-0.5-31.3-0.3 0-0.5 9.8-0.6 21.8z"/>
		<path id="Path 13" fill-rule="evenodd" class="s5" d="m938 568c0.3 0-1.4 1.8-3.8 4-4 3.8-4.5 4-15.7 3.7l6.2-0.6c5.3-0.5 6.8-1.1 9.5-3.9 1.8-1.7 3.5-3.2 3.8-3.2zm-645.3 148c0.2 0 0.3 0.1 0.3 0.2 0 0.2-3 3.2-13.5 13.3l6.5-6.8c3.5-3.7 6.6-6.7 6.7-6.7zm315.9 260.5c0.2 1.6 0.5 6.2 0.6 10.2 0.2 3.9 0 6.9-0.5 6.7-0.4-0.2-0.6-4.8-0.5-10.2 0-5.3 0.3-8.3 0.4-6.7zm15.1 32c0.2 7.1 0.2 18.4 0 25-0.1 6.6-0.3 0.7-0.3-13 0-13.8 0.2-19.1 0.3-12zm29 20c0.2 2.2 0.2 5.6 0 7.5-0.2 1.9-0.4 0.1-0.4-4 0-4.1 0.2-5.7 0.4-3.5zm-284 19c0.2 3.3 0.2 8.9 0 12.5-0.2 3.6-0.3 0.9-0.3-6 0-6.9 0.1-9.8 0.3-6.5z"/>
		<path id="Path 14" class="s6" d="m652 952.8l0.5 6.7c0.4-9.3 0.2-12.3-0.2-12.7-0.5-0.4-0.6 2.3-0.3 6zm-312.5 42.7c0 19.3 0.1 26.9 0.2 17 0.2-9.9 0.2-25.6 0-35-0.1-9.3-0.3-1.2-0.2 18zm-0.1 47.5c0 6.9 0.1 9.6 0.3 6 0.2-3.6 0.2-9.2 0-12.5-0.2-3.3-0.3-0.4-0.3 6.5z"/>
		<path id="Path 15" fill-rule="evenodd" class="s8" d="m925 292.1c2.5-0.1 5.1 0.4 5.8 1.1 0.7 0.7 1.2 2.4 1.1 3.8-0.1 2.3-0.2 2.2-0.8-0.5-0.6-2.9-0.8-3-6.1-2.9-3 0-7.1 0.3-9 0.7-3.4 0.7-3.3 0.7 0.5-0.7 2.2-0.8 6-1.4 8.5-1.5zm-14 3.1c0.8 0-0.3 0.6-2.5 1.3-2.2 0.7-9.4 2.7-16 4.5-6.6 1.7-12.1 3-12.2 2.8-0.1-0.2 5.3-1.8 12-3.6 6.7-1.9 13.3-3.7 14.7-4.2 1.4-0.5 3.2-0.8 4-0.8zm19.7 5.5c0.2 0.5-4.6 11.2-10.5 23.8-6 12.6-13.5 28.9-16.7 36-3.2 7.1-6.2 13.4-6.7 14-0.5 0.5-0.5-0.1 0-1.5 0.6-1.4 5.8-12.9 11.7-25.5 5.8-12.7 13.2-28.5 16.3-35.3 3.1-6.7 5.7-11.9 5.9-11.5zm-315.2 71.5c1.1 0 0.2 0.5-2 1.2-2.2 0.7-5.6 1.6-7.5 2-1.9 0.4-3.3 0.5-3 0.2 0.3-0.3 2.7-1.2 5.5-2 2.7-0.7 5.9-1.4 7-1.4zm-27.5 7c1.9 0 1.7 0.2-1 1-1.9 0.5-5.1 1.1-7 1.4-3.1 0.3-3 0.2 1-1 2.5-0.7 5.6-1.4 7-1.4zm-26.7 6.8c0.7 0-0.5 1.2-2.5 2.7-2 1.6-4.4 4.1-5.2 5.8q-1.6 3-1.7 1.3c0-1 1.8-3.5 4.1-5.8 2.3-2.2 4.7-4 5.3-4zm329.4 1.2c0.2 0.2-1.5 3.9-3.6 8.3-2.2 4.4-4 7.7-4 7.2-0.1-0.4 1.6-4.1 3.6-8.2 2-4.2 3.8-7.4 4-7.3zm-337.1 23.3c0.8 1.6 2.9 3.9 4.7 5 1.8 1.1 4.6 2.3 9.2 3.2l-2.7 0.2c-1.6 0-4.3-0.8-6-1.8-1.8-1.1-4.1-3.1-5-4.5-1-1.4-1.8-3.2-1.7-3.9 0-0.6 0.7 0.1 1.5 1.8zm23.9 8.8c3.9 0 5.2 0.2 3 0.4-2.2 0.2-5.3 0.2-7 0-1.6-0.2 0.2-0.4 4-0.4zm13 0l17.8-0.2c9.8 0 21.5 0.3 34.2 1.5l-12 0.1c-6.6 0-18.3-0.3-26-0.7zm66.5 1.1c6.9 0 9.6 0.2 6 0.4-3.6 0.2-9.2 0.2-12.5 0-3.3-0.2-0.4-0.4 6.5-0.4zm80.9 1.5c5.3 0.2 9.9 0.6 10.4 1 0.4 0.3 0.5 1.3 0.2 2.1-0.3 0.8-9.6 10.3-20.7 21-11.1 10.7-28.4 27.4-38.3 37-9.9 9.6-21.1 20.6-24.8 24.5-3.7 3.9-6.8 6.6-6.7 6 0-0.5 3.7-4.6 8.2-9 4.6-4.3 20.7-19.9 35.8-34.4 15.1-14.6 31.7-30.8 36.7-36.1 5.1-5.2 9-9.8 8.8-10.2-0.3-0.4-4.2-0.8-8.7-0.8-4.6 0-8.8-0.3-9.4-0.7-0.7-0.4 3.1-0.6 8.5-0.4zm136.8-0.6c0.2 0.1-1 3.3-2.7 7-1.6 3.7-3.2 6.7-3.5 6.7-0.3 0 0.1-1.4 0.9-3.2 0.7-1.8 2.2-5 3.2-7 1-2.1 1.9-3.6 2.1-3.5zm-109.7 32.8c0.3-0.1-7 7.2-16.1 16.2-9.1 8.9-26.6 25.9-39 37.8-12.3 11.9-24.4 23.4-26.8 25.5-2.5 2.2-4 3.2-3.5 2.3 0.5-0.8 2.7-3.1 4.9-4.9 2.2-1.9 8.9-8.1 15-13.9 6-5.8 20.4-19.8 32-31.1 11.5-11.4 23.7-23.2 27-26.3 3.3-3.1 6.2-5.6 6.5-5.6zm94.3-0.1c0.3 0-0.6 2.6-2 5.8-1.3 3.1-3.8 8.8-5.6 12.5-1.8 3.7-3.3 6.6-3.5 6.5-0.1-0.2 1.5-4.1 3.7-8.8 2.1-4.7 4.6-10.2 5.4-12.2 0.9-2.1 1.8-3.8 2-3.8zm-96.5 35.5c0.1 0.2-0.3 3.6-1 7.4-0.7 3.9-1.4 6.9-1.6 6.8-0.2-0.1 0.3-3.4 1-7.4 0.7-3.9 1.4-7 1.6-6.8zm77.2 8.1c0.3 0.2-0.4 2.3-1.6 4.7-1.2 2.3-6.6 14-12 26-5.4 11.9-10 21.6-10.2 21.5-0.1-0.2 4.4-10.6 10.1-23.3 5.7-12.6 11-24.4 11.7-26.2 0.8-1.7 1.7-3 2-2.7zm-86.3 36.9c0.2 1.7-0.4 5.3-1.2 8-0.8 2.8-1.3 3.7-1 2 0.3-1.6 0.8-5.2 1.2-8 0.6-3.8 0.9-4.3 1-2zm60 20.8c0.2 0.1-4.4 11-10.2 24.2-5.8 13.2-10.5 24.4-10.5 24.8 0 0.4-0.5 0.9-1 1.2-0.6 0.3-0.7-0.3-0.1-1.7 0.5-1.3 4.6-10.6 9-20.8 4.5-10.2 9.2-20.6 10.3-23.2 1.2-2.6 2.3-4.7 2.5-4.5zm-65 4.2c0.2 0.6-0.3 3.7-1.1 7-0.8 3.3-1.5 5.2-1.5 4.3-0.1-1 0.4-4.1 1.1-7 0.7-2.9 1.3-4.8 1.5-4.3zm-8 39c0.1 0.2-0.8 5.1-2 10.9-1.2 5.8-2.3 10.4-2.5 10.3-0.2-0.1 0.7-5 2-10.9 1.3-5.9 2.4-10.5 2.5-10.3zm50 8.8c0.2 0.1-0.9 3-2.4 6.5-1.6 3.4-2.9 6.1-3 6-0.2-0.2 0.9-3.1 2.4-6.5 1.5-3.5 2.9-6.2 3-6zm-56 19.3c0.1 0.2-0.2 3.2-0.8 6.6-0.6 3.5-1.4 8.1-1.9 10.3-0.5 2.2-1.6 7.2-2.4 11-0.9 3.9-1.8 7.9-2 9-0.3 1.1-0.4 0-0.1-2.5 0.2-2.5 1.3-8.3 2.4-13 1.1-4.7 2.5-11.5 3.3-15.2 0.7-3.7 1.4-6.5 1.5-6.2zm36 26.7c0.2 0.1-1.2 3.5-2.9 7.5-1.8 4-3.4 7.1-3.6 7-0.1-0.2 1.2-3.5 3-7.5 1.8-4 3.3-7.2 3.5-7zm-41.1 15.2c0.9 1.7 2.6 4.1 3.8 5.4 1.1 1.3 3.6 3 5.4 3.8 1.7 0.7 5 1.3 7.2 1.3 2.2 0 5.5-0.6 7.3-1.3 1.7-0.7 4.9-3 7-5 2-2 3.4-2.9 3-1.9-0.4 0.9-1.6 2.5-2.8 3.5-1.1 1-3.8 2.7-6 3.8-2.2 1-5.9 1.9-8.2 1.9-2.4 0-5.8-0.6-7.5-1.4-1.8-0.7-4.7-2.9-6.4-4.7-1.8-1.9-3.5-4.5-3.8-5.9-0.6-2.2-0.5-2.1 1 0.5z"/>
		<path id="Path 16" class="s2" d="m718.3 1009.5c0 3.9 0.2 5.2 0.4 3 0.2-2.2 0.2-5.4 0-7-0.2-1.6-0.4 0.1-0.4 4zm-231 27c0 3.8 0.2 5.2 0.4 3 0.2-2.2 0.2-5.3 0-7-0.2-1.7-0.4 0.2-0.4 4z"/>
		<path id="Path 17" class="s4" d="m717.3 1010c0 4.1 0.2 5.9 0.4 4 0.2-1.9 0.2-5.3 0-7.5-0.2-2.2-0.4-0.6-0.4 3.5z"/>
		<path id="Path 18" class="s9" d="m797.1 772.9c-0.1 1.5 0.4 2 1.6 1.8 1-0.1 1.8-0.9 1.8-1.7 0-0.8-0.7-1.6-1.7-1.8q-1.6-0.3-1.7 1.7z"/>
	</g>
</svg>